HIERARCHY
ROOT pelvis
{
  OFFSET 0 100 0
  CHANNELS 6 Xposition Yposition Zposition Zrotation Xrotation Yrotation
  JOINT pelvis_right_femur
  {
    OFFSET -10.78128 -3.44521 -0.5502486
    CHANNELS 3 Zrotation Xrotation Yrotation
    JOINT right_femur_tibia
    {
      OFFSET -0.8047443 -44.0398 -0.1307829
      CHANNELS 3 Zrotation Xrotation Yrotation
      JOINT right_tibia_foot
      {
        OFFSET 3.006224 -47.83518 -5
        CHANNELS 3 Zrotation Xrotation Yrotation
        End Site
        {
          OFFSET 0 -5 15
        }
      }
    }
  }
  JOINT pelvis_left_femur
  {
    OFFSET 10.78128 -3.44521 -0.5502486
    CHANNELS 3 Zrotation Xrotation Yrotation
    JOINT left_femur_tibia
    {
      OFFSET 0.8047443 -44.0398 -0.1307829
      CHANNELS 3 Zrotation Xrotation Yrotation
      JOINT left_tibia_foot
      {
        OFFSET -4.370144 -48.10324 -4.275266
        CHANNELS 3 Zrotation Xrotation Yrotation
        End Site
        {
          OFFSET 0 -5 15
        }
      }
    }
  }
  JOINT pelvis_spine1
  {
    OFFSET 0 6.468898 -3.129235
    CHANNELS 3 Zrotation Xrotation Yrotation
    JOINT spine1
    {
      OFFSET 0 23.15396 4.99043
      CHANNELS 3 Zrotation Xrotation Yrotation
      JOINT spine2
      {
        OFFSET 0 20.79997 -5.064912
        CHANNELS 3 Zrotation Xrotation Yrotation
        JOINT neck
        {
          OFFSET 0 14.38658 9.616178
          CHANNELS 3 Zrotation Xrotation Yrotation
          End Site
          {
            OFFSET 0 20 0
          }
        }
      }
      JOINT right_manubrium
      {
        OFFSET -5.722621 16.35077 3.967754
        CHANNELS 3 Zrotation Xrotation Yrotation
        JOINT right_clavicle
        {
          OFFSET -13.16364 1.694482 -4.693211
          CHANNELS 3 Zrotation Xrotation Yrotation
          JOINT right_humerus
          {
            OFFSET -28.5034 -0.3100689 -2.792744
            CHANNELS 3 Zrotation Xrotation Yrotation
            JOINT right_radius
            {
              OFFSET -25.15693 0.02248979 -1.271978
              CHANNELS 3 Zrotation Xrotation Yrotation
              End Site
              {
                OFFSET -15 0 0
              }
            }
          }
        }
      }
      JOINT left_manubrium
      {
        OFFSET 5.722621 16.35077 3.967754
        CHANNELS 3 Zrotation Xrotation Yrotation
        JOINT left_clavicle
        {
          OFFSET 13.16364 1.694482 -4.693211
          CHANNELS 3 Zrotation Xrotation Yrotation
          JOINT left_humerus
          {
            OFFSET 29.39168 -1.063119 -2.237045
            CHANNELS 3 Zrotation Xrotation Yrotation
            JOINT left_radius
            {
              OFFSET 24.59957 -0.9528479 0.9047498
              CHANNELS 3 Zrotation Xrotation Yrotation
              End Site
              {
                OFFSET 15 -0 -0
              }
            }
          }
        }
      }
    }
  }
}
MOTION
Frames: 21
Frame Time: 0.0416666666667
-1058.845 103.38 -466.8687 14.62127 5.051884 110.6017 5.509184 13.72984 2.723702 -0 27.04284 -0 -11.57214 -12.34142 -7.715851 3.971892 -8.451872 -2.715615 -0 11.11196 -0 8.825904 1.173052 16.32496 1.420465 -4.300344 6.936775 0.06163569 16.7165 -6.994735 1.918674 19.79515 -0.8326993 -1.877748 -14.56341 3.857842 -7.920609 -32.98109 10.31914 96.06372 9.55943 -9.208438 -0 0 30.90143 -21.368 15.59276 11.72351 -0.2651914 -22.04978 -10.50545 -89.85923 2.602685 35.81881 0 0 -3.510208 12.89793 15.37182 -4.564359
-1053.46 103.3803 -469.9948 14.66403 4.923884 110.1099 5.509184 13.72984 2.723702 -0 27.04284 -0 -11.57214 -12.34142 -7.715851 3.971892 -8.451872 -2.715615 -0 11.11196 -0 8.825904 1.173052 16.32496 1.420465 -4.300344 6.936775 0.06163569 16.7165 -6.994735 1.918674 19.79515 -0.8326993 -1.877748 -14.56341 3.857842 -7.920609 -32.98109 10.31914 96.06372 9.55943 -9.208438 -0 0 30.90143 -21.368 15.59276 11.72351 -0.2651914 -22.04978 -10.50545 -89.85923 2.602685 35.81881 0 0 -3.510208 12.89793 15.37182 -4.564359
-1048.047 103.3806 -473.0732 14.70567 4.795524 109.6184 5.509184 13.72984 2.723702 -0 27.04284 -0 -11.57214 -12.34142 -7.715851 3.971892 -8.451872 -2.715615 -0 11.11196 -0 8.825904 1.173052 16.32496 1.420465 -4.300344 6.936775 0.06163569 16.7165 -6.994735 1.918674 19.79515 -0.8326993 -1.877748 -14.56341 3.857842 -7.920609 -32.98109 10.31914 96.06372 9.55943 -9.208438 -0 0 30.90143 -21.368 15.59276 11.72351 -0.2651914 -22.04978 -10.50545 -89.85923 2.602685 35.81881 0 0 -3.510208 12.89793 15.37182 -4.564359
-1042.608 103.3808 -476.1036 14.7462 4.666812 109.127 5.509184 13.72984 2.723702 -0 27.04284 -0 -11.57214 -12.34142 -7.715851 3.971892 -8.451872 -2.715615 -0 11.11196 -0 8.825904 1.173052 16.32496 1.420465 -4.300344 6.936775 0.06163569 16.7165 -6.994735 1.918674 19.79515 -0.8326993 -1.877748 -14.56341 3.857842 -7.920609 -32.98109 10.31914 96.06372 9.55943 -9.208438 -0 0 30.90143 -21.368 15.59276 11.72351 -0.2651914 -22.04978 -10.50545 -89.85923 2.602685 35.81881 0 0 -3.510208 12.89793 15.37182 -4.564359
-1037.142 103.3811 -479.0859 14.78562 4.537759 108.6358 5.509184 13.72984 2.723702 -0 27.04284 -0 -11.57214 -12.34142 -7.715851 3.971892 -8.451872 -2.715615 -0 11.11196 -0 8.825904 1.173052 16.32496 1.420465 -4.300344 6.936775 0.06163569 16.7165 -6.994735 1.918674 19.79515 -0.8326993 -1.877748 -14.56341 3.857842 -7.920609 -32.98109 10.31914 96.06372 9.55943 -9.208438 -0 0 30.90143 -21.368 15.59276 11.72351 -0.2651914 -22.04978 -10.50545 -89.85923 2.602685 35.81881 0 0 -3.510208 12.89793 15.37182 -4.564359
-1031.649 103.3814 -482.0197 14.82391 4.408374 108.1447 5.509184 13.72984 2.723702 -0 27.04284 -0 -11.57214 -12.34142 -7.715851 3.971892 -8.451872 -2.715615 -0 11.11196 -0 8.825904 1.173052 16.32496 1.420465 -4.300344 6.936775 0.06163569 16.7165 -6.994735 1.918674 19.79515 -0.8326993 -1.877748 -14.56341 3.857842 -7.920609 -32.98109 10.31914 96.06372 9.55943 -9.208438 -0 0 30.90143 -21.368 15.59276 11.72351 -0.2651914 -22.04978 -10.50545 -89.85923 2.602685 35.81881 0 0 -3.510208 12.89793 15.37182 -4.564359
-1026.132 103.3816 -484.9049 14.86109 4.278667 107.6539 5.509184 13.72984 2.723702 -0 27.04284 -0 -11.57214 -12.34142 -7.715851 3.971892 -8.451872 -2.715615 -0 11.11196 -0 8.825904 1.173052 16.32496 1.420465 -4.300344 6.936775 0.06163569 16.7165 -6.994735 1.918674 19.79515 -0.8326993 -1.877748 -14.56341 3.857842 -7.920609 -32.98109 10.31914 96.06372 9.55943 -9.208438 -0 0 30.90143 -21.368 15.59276 11.72351 -0.2651914 -22.04978 -10.50545 -89.85923 2.602685 35.81881 0 0 -3.510208 12.89793 15.37182 -4.564359
-1020.588 103.3819 -487.7412 14.89715 4.148646 107.1632 5.509184 13.72984 2.723702 -0 27.04284 -0 -11.57214 -12.34142 -7.715851 3.971892 -8.451872 -2.715615 -0 11.11196 -0 8.825904 1.173052 16.32496 1.420465 -4.300344 6.936775 0.06163569 16.7165 -6.994735 1.918674 19.79515 -0.8326993 -1.877748 -14.56341 3.857842 -7.920609 -32.98109 10.31914 96.06372 9.55943 -9.208438 -0 0 30.90143 -21.368 15.59276 11.72351 -0.2651914 -22.04978 -10.50545 -89.85923 2.602685 35.81881 0 0 -3.510208 12.89793 15.37182 -4.564359
-1015.02 103.3821 -490.5284 14.93208 4.018323 106.6727 5.509184 13.72984 2.723702 -0 27.04284 -0 -11.57214 -12.34142 -7.715851 3.971892 -8.451872 -2.715615 -0 11.11196 -0 8.825904 1.173052 16.32496 1.420465 -4.300344 6.936775 0.06163569 16.7165 -6.994735 1.918674 19.79515 -0.8326993 -1.877748 -14.56341 3.857842 -7.920609 -32.98109 10.31914 96.06372 9.55943 -9.208438 -0 0 30.90143 -21.368 15.59276 11.72351 -0.2651914 -22.04978 -10.50545 -89.85923 2.602685 35.81881 0 0 -3.510208 12.89793 15.37182 -4.564359
-1009.428 103.3824 -493.2663 14.96588 3.887706 106.1823 5.509184 13.72984 2.723702 -0 27.04284 -0 -11.57214 -12.34142 -7.715851 3.971892 -8.451872 -2.715615 -0 11.11196 -0 8.825904 1.173052 16.32496 1.420465 -4.300344 6.936775 0.06163569 16.7165 -6.994735 1.918674 19.79515 -0.8326993 -1.877748 -14.56341 3.857842 -7.920609 -32.98109 10.31914 96.06372 9.55943 -9.208438 -0 0 30.90143 -21.368 15.59276 11.72351 -0.2651914 -22.04978 -10.50545 -89.85923 2.602685 35.81881 0 0 -3.510208 12.89793 15.37182 -4.564359
-1003.811 103.3827 -495.9547 14.99856 3.756805 105.6921 5.509184 13.72984 2.723702 -0 27.04284 -0 -11.57214 -12.34142 -7.715851 3.971892 -8.451872 -2.715615 -0 11.11196 -0 8.825904 1.173052 16.32496 1.420465 -4.300344 6.936775 0.06163569 16.7165 -6.994735 1.918674 19.79515 -0.8326993 -1.877748 -14.56341 3.857842 -7.920609 -32.98109 10.31914 96.06372 9.55943 -9.208438 -0 0 30.90143 -21.368 15.59276 11.72351 -0.2651914 -22.04978 -10.50545 -89.85923 2.602685 35.81881 0 0 -3.510208 12.89793 15.37182 -4.564359
-998.1713 103.3829 -498.5933 15.03011 3.62563 105.202 5.509184 13.72984 2.723702 -0 27.04284 -0 -11.57214 -12.34142 -7.715851 3.971892 -8.451872 -2.715615 -0 11.11196 -0 8.825904 1.173052 16.32496 1.420465 -4.300344 6.936775 0.06163569 16.7165 -6.994735 1.918674 19.79515 -0.8326993 -1.877748 -14.56341 3.857842 -7.920609 -32.98109 10.31914 96.06372 9.55943 -9.208438 -0 0 30.90143 -21.368 15.59276 11.72351 -0.2651914 -22.04978 -10.50545 -89.85923 2.602685 35.81881 0 0 -3.510208 12.89793 15.37182 -4.564359
-992.5082 103.3832 -501.182 15.06053 3.494191 104.7121 5.509184 13.72984 2.723702 -0 27.04284 -0 -11.57214 -12.34142 -7.715851 3.971892 -8.451872 -2.715615 -0 11.11196 -0 8.825904 1.173052 16.32496 1.420465 -4.300344 6.936775 0.06163569 16.7165 -6.994735 1.918674 19.79515 -0.8326993 -1.877748 -14.56341 3.857842 -7.920609 -32.98109 10.31914 96.06372 9.55943 -9.208438 -0 0 30.90143 -21.368 15.59276 11.72351 -0.2651914 -22.04978 -10.50545 -89.85923 2.602685 35.81881 0 0 -3.510208 12.89793 15.37182 -4.564359
-986.8225 103.3835 -503.7205 15.08982 3.362497 104.2223 5.509184 13.72984 2.723702 -0 27.04284 -0 -11.57214 -12.34142 -7.715851 3.971892 -8.451872 -2.715615 -0 11.11196 -0 8.825904 1.173052 16.32496 1.420465 -4.300344 6.936775 0.06163569 16.7165 -6.994735 1.918674 19.79515 -0.8326993 -1.877748 -14.56341 3.857842 -7.920609 -32.98109 10.31914 96.06372 9.55943 -9.208438 -0 0 30.90143 -21.368 15.59276 11.72351 -0.2651914 -22.04978 -10.50545 -89.85923 2.602685 35.81881 0 0 -3.510208 12.89793 15.37182 -4.564359
-981.1145 103.3837 -506.2087 15.11798 3.230558 103.7326 5.509184 13.72984 2.723702 -0 27.04284 -0 -11.57214 -12.34142 -7.715851 3.971892 -8.451872 -2.715615 -0 11.11196 -0 8.825904 1.173052 16.32496 1.420465 -4.300344 6.936775 0.06163569 16.7165 -6.994735 1.918674 19.79515 -0.8326993 -1.877748 -14.56341 3.857842 -7.920609 -32.98109 10.31914 96.06372 9.55943 -9.208438 -0 0 30.90143 -21.368 15.59276 11.72351 -0.2651914 -22.04978 -10.50545 -89.85923 2.602685 35.81881 0 0 -3.510208 12.89793 15.37182 -4.564359
-975.3848 103.384 -508.6463 15.145 3.098383 103.2431 5.509184 13.72984 2.723702 -0 27.04284 -0 -11.57214 -12.34142 -7.715851 3.971892 -8.451872 -2.715615 -0 11.11196 -0 8.825904 1.173052 16.32496 1.420465 -4.300344 6.936775 0.06163569 16.7165 -6.994735 1.918674 19.79515 -0.8326993 -1.877748 -14.56341 3.857842 -7.920609 -32.98109 10.31914 96.06372 9.55943 -9.208438 -0 0 30.90143 -21.368 15.59276 11.72351 -0.2651914 -22.04978 -10.50545 -89.85923 2.602685 35.81881 0 0 -3.510208 12.89793 15.37182 -4.564359
-969.6338 103.3843 -511.0332 15.17089 2.965983 102.7536 5.509184 13.72984 2.723702 -0 27.04284 -0 -11.57214 -12.34142 -7.715851 3.971892 -8.451872 -2.715615 -0 11.11196 -0 8.825904 1.173052 16.32496 1.420465 -4.300344 6.936775 0.06163569 16.7165 -6.994735 1.918674 19.79515 -0.8326993 -1.877748 -14.56341 3.857842 -7.920609 -32.98109 10.31914 96.06372 9.55943 -9.208438 -0 0 30.90143 -21.368 15.59276 11.72351 -0.2651914 -22.04978 -10.50545 -89.85923 2.602685 35.81881 0 0 -3.510208 12.89793 15.37182 -4.564359
-963.8618 103.3845 -513.3692 15.19565 2.833366 102.2644 5.509184 13.72984 2.723702 -0 27.04284 -0 -11.57214 -12.34142 -7.715851 3.971892 -8.451872 -2.715615 -0 11.11196 -0 8.825904 1.173052 16.32496 1.420465 -4.300344 6.936775 0.06163569 16.7165 -6.994735 1.918674 19.79515 -0.8326993 -1.877748 -14.56341 3.857842 -7.920609 -32.98109 10.31914 96.06372 9.55943 -9.208438 -0 0 30.90143 -21.368 15.59276 11.72351 -0.2651914 -22.04978 -10.50545 -89.85923 2.602685 35.81881 0 0 -3.510208 12.89793 15.37182 -4.564359
-958.0695 103.3848 -515.6541 15.21926 2.700544 101.7752 5.509184 13.72984 2.723702 -0 27.04284 -0 -11.57214 -12.34142 -7.715851 3.971892 -8.451872 -2.715615 -0 11.11196 -0 8.825904 1.173052 16.32496 1.420465 -4.300344 6.936775 0.06163569 16.7165 -6.994735 1.918674 19.79515 -0.8326993 -1.877748 -14.56341 3.857842 -7.920609 -32.98109 10.31914 96.06372 9.55943 -9.208438 -0 0 30.90143 -21.368 15.59276 11.72351 -0.2651914 -22.04978 -10.50545 -89.85923 2.602685 35.81881 0 0 -3.510208 12.89793 15.37182 -4.564359
-952.2572 103.385 -517.8877 15.24174 2.567525 101.2861 5.509184 13.72984 2.723702 -0 27.04284 -0 -11.57214 -12.34142 -7.715851 3.971892 -8.451872 -2.715615 -0 11.11196 -0 8.825904 1.173052 16.32496 1.420465 -4.300344 6.936775 0.06163569 16.7165 -6.994735 1.918674 19.79515 -0.8326993 -1.877748 -14.56341 3.857842 -7.920609 -32.98109 10.31914 96.06372 9.55943 -9.208438 -0 0 30.90143 -21.368 15.59276 11.72351 -0.2651914 -22.04978 -10.50545 -89.85923 2.602685 35.81881 0 0 -3.510208 12.89793 15.37182 -4.564359
-946.4254 103.3853 -520.0699 15.26307 2.434319 100.7971 5.509184 13.72984 2.723702 -0 27.04284 -0 -11.57214 -12.34142 -7.715851 3.971892 -8.451872 -2.715615 -0 11.11196 -0 8.825904 1.173052 16.32496 1.420465 -4.300344 6.936775 0.06163569 16.7165 -6.994735 1.918674 19.79515 -0.8326993 -1.877748 -14.56341 3.857842 -7.920609 -32.98109 10.31914 96.06372 9.55943 -9.208438 -0 0 30.90143 -21.368 15.59276 11.72351 -0.2651914 -22.04978 -10.50545 -89.85923 2.602685 35.81881 0 0 -3.510208 12.89793 15.37182 -4.564359
